<svg version="1.1" xmlns="http://www.w3.org/2000/svg" xmlns:xlink="http://www.w3.org/1999/xlink" width="306.92991" height="283.49029" viewBox="0,0,306.92991,283.49029"><defs><radialGradient cx="198.08057" cy="220.09274" r="66.94201" gradientUnits="userSpaceOnUse" id="color-1"><stop offset="0" stop-color="#ffffff"/><stop offset="1" stop-color="#b9b9b9"/></radialGradient><radialGradient cx="274.79151" cy="188.09274" r="154" gradientUnits="userSpaceOnUse" id="color-2"><stop offset="0" stop-color="#ffd880"/><stop offset="1" stop-color="#ff3c00"/></radialGradient><radialGradient cx="111.92488" cy="128.24389" r="44.40229" gradientUnits="userSpaceOnUse" id="color-3"><stop offset="0" stop-color="#ffffff"/><stop offset="1" stop-color="#b9b9b9"/></radialGradient><radialGradient cx="129.71727" cy="108.90674" r="19.56561" gradientUnits="userSpaceOnUse" id="color-4"><stop offset="0" stop-color="#cccccc"/><stop offset="1" stop-color="#000000"/></radialGradient><radialGradient cx="114.01597" cy="89.3596" r="44.96495" gradientUnits="userSpaceOnUse" id="color-5"><stop offset="0" stop-color="#ffb300"/><stop offset="1" stop-color="#b52a00"/></radialGradient><radialGradient cx="326.92488" cy="207.24389" r="44.40229" gradientUnits="userSpaceOnUse" id="color-6"><stop offset="0" stop-color="#ffffff"/><stop offset="1" stop-color="#b9b9b9"/></radialGradient><radialGradient cx="344.71727" cy="187.90674" r="19.56561" gradientUnits="userSpaceOnUse" id="color-7"><stop offset="0" stop-color="#cccccc"/><stop offset="1" stop-color="#000000"/></radialGradient><radialGradient cx="329.01597" cy="168.3596" r="44.96494" gradientUnits="userSpaceOnUse" id="color-8"><stop offset="0" stop-color="#ffb300"/><stop offset="1" stop-color="#b52a00"/></radialGradient></defs><g transform="translate(-86.53505,-38.25486)"><g data-paper-data="{&quot;isPaintingLayer&quot;:true}" fill-rule="nonzero" stroke="#000000" stroke-linejoin="miter" stroke-miterlimit="10" stroke-dasharray="" stroke-dashoffset="0" style="mix-blend-mode: normal"><g><path d="M130.85931,230.35515l25.41842,-100.45442l76.02413,56.9296l-50.41842,76.95442z" fill="url(#color-1)" stroke-width="2" stroke-linecap="butt"/><path d="M129.58058,233.59274l63,-91" fill="none" stroke-width="2" stroke-linecap="round"/><path d="M209.58058,161.59274l-68,82" fill="none" stroke-width="2" stroke-linecap="round"/><path d="M153.58058,254.09274l73,-78" fill="none" stroke-width="2" stroke-linecap="round"/><path d="M301.79151,313.59274c-22.94793,0 -102.9676,-106.84193 -102.9676,-106.84193c0,0 -29.96611,-47.42431 -42.80603,-40.80261c-11.91579,6.14512 46.78982,70.92792 46.78982,70.92792c0,0 1.06602,69.63841 -2.88792,72.76879c-20.81105,16.47635 -84.20354,12.58813 -88.12826,1.44782c-3.06478,-8.69935 -14.35304,-257.94461 2,-260.5c4.31222,-0.67384 71.01929,-5.72729 78.90108,0.52879c25.88631,20.54697 82.39302,106.43942 82.39302,106.43942c0,0 -9.08657,-108.9331 2.66403,-114.29606c5.67221,-2.58879 67.84903,-9.07159 78.25831,3.36372c3.40243,4.06467 13.59948,225.62497 9.33451,244.31319c-6.78602,29.73495 -41.28159,22.65094 -63.55095,22.65094z" fill="url(#color-2)" stroke-width="2" stroke-linecap="butt"/><g stroke-linecap="butt"><path d="M176.70286,109.19155c0,26.09535 1.29308,38.48573 -45.91614,37.72364c-44.91709,-0.7251 -42.86778,-12.39038 -42.86778,-38.48573c0,-25.08451 -2.20176,-22.15118 43.24882,-23.24386c39.27609,-0.94424 45.5351,-2.0894 45.5351,24.00595z" fill="url(#color-3)" stroke-width="2"/><path d="M103.35213,111.10384c0.64233,-10.36161 5.66113,-17.33264 18.065,-17.33264c12.40387,0 20.99446,4.50992 20.99446,14.8914c0,10.3815 -0.77871,21.72681 -18.55324,20.75034c-12.38518,-0.68041 -21.48269,-2.55695 -20.50621,-18.30912z" data-paper-data="{&quot;index&quot;:null}" fill="url(#color-4)" stroke-width="0"/><path d="M177.46495,108.0484h-89.54602c0,0 -1.49098,-9.39445 1.40376,-17.80723c3.11868,-9.0636 11.69531,-17.23267 43.36925,-18.39222c33.91048,-0.54539 40.91754,11.61609 43.04005,21.98747c1.55223,7.58467 1.73294,14.21197 1.73294,14.21197z" fill="url(#color-5)" stroke-width="2"/></g><g stroke-linecap="butt"><path d="M391.70285,188.19155c0,26.09535 1.29308,38.48573 -45.91614,37.72364c-44.91709,-0.7251 -42.86778,-12.39038 -42.86778,-38.48573c0,-25.08451 -2.20177,-22.15118 43.24882,-23.24387c39.27609,-0.94424 45.5351,-2.08939 45.5351,24.00596z" fill="url(#color-6)" stroke-width="2"/><path d="M318.35213,190.10384c0.64233,-10.36161 5.66114,-17.33264 18.06501,-17.33264c12.40387,0 20.99446,4.50992 20.99446,14.8914c0,10.3815 -0.77871,21.72681 -18.55324,20.75034c-12.38518,-0.68041 -21.48269,-2.55695 -20.50621,-18.30911z" data-paper-data="{&quot;index&quot;:null}" fill="url(#color-7)" stroke-width="0"/><path d="M392.46495,187.0484h-89.54602c0,0 -1.49098,-9.39445 1.40376,-17.80723c3.11868,-9.0636 11.69531,-17.23268 43.36925,-18.39222c33.91048,-0.54539 40.91754,11.61608 43.04006,21.98747c1.55223,7.58467 1.73294,14.21197 1.73294,14.21197z" fill="url(#color-8)" stroke-width="2"/></g></g></g></g></svg>